Adsworth-8PTG0XT0db.ufo
<glyph name="A" format="2">
  <advance width="761"/>
  <outline>
    <contour>
      <point x="662.0" y="351.0" type="line"/>
      <point x="110.0" y="351.0" type="line"/>
      <point x="128.0" y="475.0" type="line"/>
      <point x="643.0" y="475.0" type="line"/>
    </contour>
    <contour>
      <point x="506.0" y="1500.0" type="line"/>
      <point x="721.0" y="0.0" type="line"/>
      <point x="534.0" y="0.0" type="line"/>
      <point x="392.0" y="1267.0" type="line"/>
      <point x="371.0" y="1268.0" type="line"/>
      <point x="238.0" y="0.0" type="line"/>
      <point x="40.0" y="0.0" type="line"/>
      <point x="264.0" y="1500.0" type="line"/>
    </contour>
  </outline>
</glyph>
<glyph name="B" format="2">
  <advance width="986"/>
  <outline>
    <contour>
      <point x="200" y="0" type="line"/>
      <point x="200" y="1500" type="line"/>
      <point x="389" y="1500" type="line"/>
      <point x="389" y="0" type="line"/>
    </contour>
    <contour>
      <point x="530" y="795" type="line"/>
      <point x="683" y="805"/>
      <point x="899" y="648"/>
      <point x="899" y="508" type="qcurve" smooth="yes"/>
      <point x="899" y="323" type="line" smooth="yes"/>
      <point x="899" y="175"/>
      <point x="721" y="0"/>
      <point x="584" y="0" type="qcurve" smooth="yes"/>
      <point x="279" y="0" type="line"/>
      <point x="279" y="126" type="line"/>
      <point x="523" y="126" type="line" smooth="yes"/>
      <point x="641" y="126"/>
      <point x="717" y="234"/>
      <point x="717" y="332" type="qcurve" smooth="yes"/>
      <point x="717" y="486" type="line" smooth="yes"/>
      <point x="717" y="590"/>
      <point x="609" y="719"/>
      <point x="497" y="719" type="qcurve" smooth="yes"/>
      <point x="279" y="719" type="line"/>
      <point x="279" y="839" type="line"/>
      <point x="450" y="839" type="line" smooth="yes"/>
      <point x="571" y="839"/>
      <point x="654" y="934"/>
      <point x="654" y="1032" type="qcurve" smooth="yes"/>
      <point x="654" y="1239" type="line" smooth="yes"/>
      <point x="654" y="1310"/>
      <point x="585" y="1373"/>
      <point x="487" y="1373" type="qcurve" smooth="yes"/>
      <point x="279" y="1373" type="line"/>
      <point x="279" y="1500" type="line"/>
      <point x="543" y="1500" type="line" smooth="yes"/>
      <point x="674" y="1500"/>
      <point x="842" y="1365"/>
      <point x="842" y="1244" type="qcurve" smooth="yes"/>
      <point x="842" y="1056" type="line" smooth="yes"/>
      <point x="842" y="906"/>
      <point x="665" y="775"/>
      <point x="522" y="775" type="qcurve"/>
    </contour>
  </outline>
</glyph>
<glyph name="C" format="2">
  <advance width="765"/>
  <outline>
    <contour>
      <point x="398.0" y="114.0" type="line" smooth="yes"/>
      <point x="457.0" y="114.0"/>
      <point x="500.0" y="285.0"/>
      <point x="501.0" y="370.0" type="qcurve" smooth="yes"/>
      <point x="501.0" y="552.0" type="line"/>
      <point x="669.0" y="552.0" type="line"/>
      <point x="667.0" y="320.0" type="line" smooth="yes"/>
      <point x="647.0" y="159.0"/>
      <point x="529.0" y="-22.0"/>
      <point x="417.0" y="-22.0" type="qcurve" smooth="yes"/>
      <point x="383.0" y="-22.0" type="line" smooth="yes"/>
      <point x="263.0" y="-22.0"/>
      <point x="126.0" y="195.0"/>
      <point x="126.0" y="377.0" type="qcurve" smooth="yes"/>
      <point x="126.0" y="1128.0" type="line" smooth="yes"/>
      <point x="126.0" y="1300.0"/>
      <point x="223.0" y="1520.0"/>
      <point x="373.0" y="1520.0" type="qcurve" smooth="yes"/>
      <point x="411.0" y="1520.0" type="line" smooth="yes"/>
      <point x="538.0" y="1520.0"/>
      <point x="661.0" y="1366.0"/>
      <point x="670.0" y="1200.0" type="qcurve" smooth="yes"/>
      <point x="671.0" y="947.0" type="line"/>
      <point x="511.0" y="947.0" type="line"/>
      <point x="511.0" y="1150.0" type="line" smooth="yes"/>
      <point x="501.0" y="1270.0"/>
      <point x="433.0" y="1379.0"/>
      <point x="409.0" y="1379.0" type="qcurve" smooth="yes"/>
      <point x="392.0" y="1379.0" type="line" smooth="yes"/>
      <point x="338.0" y="1379.0"/>
      <point x="321.0" y="1271.0"/>
      <point x="321.0" y="1203.0" type="qcurve" smooth="yes"/>
      <point x="321.0" y="294.0" type="line" smooth="yes"/>
      <point x="321.0" y="206.0"/>
      <point x="348.0" y="114.0"/>
      <point x="381.0" y="114.0" type="qcurve" smooth="yes"/>
    </contour>
  </outline>
</glyph>
<glyph name="D" format="2">
  <advance width="1037"/>
  <outline>
    <contour>
      <point x="188" y="0" type="line"/>
      <point x="188" y="1500" type="line"/>
      <point x="383" y="1500" type="line"/>
      <point x="383" y="0" type="line"/>
    </contour>
    <contour>
      <point x="558" y="137" type="line" smooth="yes"/>
      <point x="655" y="137"/>
      <point x="684" y="228"/>
      <point x="684" y="324" type="qcurve" smooth="yes"/>
      <point x="684" y="1175" type="line" smooth="yes"/>
      <point x="684" y="1266"/>
      <point x="659" y="1356"/>
      <point x="561" y="1362" type="qcurve" smooth="yes"/>
      <point x="365" y="1362" type="line"/>
      <point x="365" y="1500" type="line"/>
      <point x="607" y="1500" type="line" smooth="yes"/>
      <point x="748" y="1500"/>
      <point x="885" y="1303"/>
      <point x="885" y="1136" type="qcurve" smooth="yes"/>
      <point x="885" y="369" type="line" smooth="yes"/>
      <point x="885" y="197"/>
      <point x="756" y="0"/>
      <point x="605" y="0" type="qcurve" smooth="yes"/>
      <point x="365" y="0" type="line"/>
      <point x="365" y="137" type="line"/>
    </contour>
  </outline>
</glyph>
<glyph name="E" format="2">
  <advance width="895"/>
  <outline>
    <contour>
      <point x="200" y="0" type="line"/>
      <point x="200" y="1500" type="line"/>
      <point x="396" y="1500" type="line"/>
      <point x="396" y="0" type="line"/>
    </contour>
    <contour>
      <point x="756" y="732" type="line"/>
      <point x="276" y="732" type="line"/>
      <point x="276" y="870" type="line"/>
      <point x="756" y="870" type="line"/>
    </contour>
    <contour>
      <point x="816" y="1362" type="line"/>
      <point x="276" y="1362" type="line"/>
      <point x="276" y="1500" type="line"/>
      <point x="816" y="1500" type="line"/>
    </contour>
    <contour>
      <point x="816" y="0" type="line"/>
      <point x="276" y="0" type="line"/>
      <point x="276" y="136" type="line"/>
      <point x="816" y="136" type="line"/>
    </contour>
  </outline>
</glyph>
<glyph name="F" format="2">
  <advance width="764"/>
  <outline>
    <contour>
      <point x="200" y="0" type="line"/>
      <point x="200" y="1500" type="line"/>
      <point x="395" y="1500" type="line"/>
      <point x="395" y="0" type="line"/>
    </contour>
    <contour>
      <point x="711" y="697" type="line"/>
      <point x="321" y="697" type="line"/>
      <point x="321" y="833" type="line"/>
      <point x="711" y="833" type="line"/>
    </contour>
    <contour>
      <point x="741" y="1362" type="line"/>
      <point x="321" y="1362" type="line"/>
      <point x="321" y="1500" type="line"/>
      <point x="741" y="1500" type="line"/>
    </contour>
  </outline>
</glyph>
<glyph name="G" format="2">
  <advance width="755"/>
  <outline>
    <contour>
      <point x="412.0" y="100.0" type="line" smooth="yes"/>
      <point x="462.0" y="100.0"/>
      <point x="511.0" y="231.0"/>
      <point x="502.0" y="427.0" type="qcurve" smooth="yes"/>
      <point x="498.0" y="593.0" type="line"/>
      <point x="417.0" y="592.0" type="line"/>
      <point x="417.0" y="730.0" type="line"/>
      <point x="664.0" y="731.0" type="line"/>
      <point x="665.0" y="297.0" type="line" smooth="yes"/>
      <point x="666.0" y="144.0"/>
      <point x="549.0" y="-21.0"/>
      <point x="427.0" y="-21.0" type="qcurve" smooth="yes"/>
      <point x="384.0" y="-21.0" type="line" smooth="yes"/>
      <point x="251.0" y="-21.0"/>
      <point x="126.0" y="239.0"/>
      <point x="126.0" y="372.0" type="qcurve" smooth="yes"/>
      <point x="126.0" y="1132.0" type="line" smooth="yes"/>
      <point x="126.0" y="1303.0"/>
      <point x="260.0" y="1520.0"/>
      <point x="369.0" y="1520.0" type="qcurve" smooth="yes"/>
      <point x="422.0" y="1520.0" type="line" smooth="yes"/>
      <point x="530.0" y="1520.0"/>
      <point x="664.0" y="1341.0"/>
      <point x="657.0" y="1193.0" type="qcurve" smooth="yes"/>
      <point x="656.0" y="986.0" type="line"/>
      <point x="508.0" y="986.0" type="line"/>
      <point x="508.0" y="1128.0" type="line" smooth="yes"/>
      <point x="508.0" y="1239"/>
      <point x="462.0" y="1376.0"/>
      <point x="426.0" y="1376.0" type="qcurve" smooth="yes"/>
      <point x="398.0" y="1376.0" type="line" smooth="yes"/>
      <point x="384.0" y="1376.0"/>
      <point x="318.0" y="1303.0"/>
      <point x="318.0" y="1208.0" type="qcurve" smooth="yes"/>
      <point x="318.0" y="299.0" type="line" smooth="yes"/>
      <point x="318.0" y="210.0"/>
      <point x="371.0" y="100.0"/>
      <point x="390.0" y="100.0" type="qcurve" smooth="yes"/>
    </contour>
  </outline>
</glyph>
<glyph name="H" format="2">
  <advance width="1120"/>
  <outline>
    <contour>
      <point x="200.0" y="0.0" type="line"/>
      <point x="200.0" y="1500.0" type="line"/>
      <point x="395.0" y="1500.0" type="line"/>
      <point x="395.0" y="0.0" type="line"/>
    </contour>
    <contour>
      <point x="725.0" y="0.0" type="line"/>
      <point x="725.0" y="1500.0" type="line"/>
      <point x="920.0" y="1500.0" type="line"/>
      <point x="920.0" y="0.0" type="line"/>
    </contour>
    <contour>
      <point x="886.0" y="725.0" type="line"/>
      <point x="336.0" y="725.0" type="line"/>
      <point x="336.0" y="871.0" type="line"/>
      <point x="886.0" y="871.0" type="line"/>
    </contour>
  </outline>
</glyph>
<glyph name="I" format="2">
  <advance width="680"/>
  <outline>
    <contour>
      <point x="243" y="0" type="line"/>
      <point x="243" y="1500" type="line"/>
      <point x="437" y="1500" type="line"/>
      <point x="437" y="0" type="line"/>
    </contour>
    <contour>
      <point x="570" y="0" type="line"/>
      <point x="110" y="0" type="line"/>
      <point x="110" y="155" type="line"/>
      <point x="570" y="155" type="line"/>
    </contour>
    <contour>
      <point x="570" y="1355" type="line"/>
      <point x="110" y="1355" type="line"/>
      <point x="110" y="1500" type="line"/>
      <point x="570" y="1500" type="line"/>
    </contour>
  </outline>
</glyph>
<glyph name="J" format="2">
  <advance width="878"/>
  <outline>
    <contour>
      <point x="716" y="426" type="line" smooth="yes"/>
      <point x="716" y="179"/>
      <point x="532" y="-22"/>
      <point x="383" y="-22" type="qcurve" smooth="yes"/>
      <point x="348" y="-22" type="line" smooth="yes"/>
      <point x="189" y="-22"/>
      <point x="18" y="136"/>
      <point x="20" y="302" type="qcurve" smooth="yes"/>
      <point x="21" y="414" type="line"/>
      <point x="207" y="412" type="line"/>
      <point x="207" y="287" type="line" smooth="yes"/>
      <point x="207" y="186"/>
      <point x="278" y="108"/>
      <point x="355" y="108" type="qcurve" smooth="yes"/>
      <point x="373" y="108" type="line" smooth="yes"/>
      <point x="445" y="108"/>
      <point x="516" y="207"/>
      <point x="516" y="270" type="qcurve" smooth="yes"/>
      <point x="515" y="1500" type="line"/>
      <point x="716" y="1500" type="line"/>
    </contour>
  </outline>
</glyph>
<glyph name="K" format="2">
  <advance width="946"/>
  <outline>
    <contour>
      <point x="200" y="0" type="line"/>
      <point x="200" y="1500" type="line"/>
      <point x="395" y="1500" type="line"/>
      <point x="395" y="730" type="line"/>
      <point x="454" y="936" type="line"/>
      <point x="701" y="1500" type="line"/>
      <point x="878" y="1500" type="line"/>
      <point x="542" y="729" type="line"/>
      <point x="486" y="724" type="line"/>
      <point x="395" y="476" type="line"/>
      <point x="395" y="0" type="line"/>
    </contour>
    <contour>
      <point x="439" y="691" type="line"/>
      <point x="552" y="905" type="line"/>
      <point x="926" y="0" type="line"/>
      <point x="712" y="0" type="line"/>
    </contour>
  </outline>
</glyph>
<glyph name="L" format="2">
  <advance width="751"/>
  <outline>
    <contour>
      <point x="188.0" y="0.0" type="line"/>
      <point x="188.0" y="1500.0" type="line"/>
      <point x="382.0" y="1500.0" type="line"/>
      <point x="382.0" y="0.0" type="line"/>
    </contour>
    <contour>
      <point x="714.0" y="0.0" type="line"/>
      <point x="209.0" y="0.0" type="line"/>
      <point x="209.0" y="138.0" type="line"/>
      <point x="714.0" y="138.0" type="line"/>
    </contour>
  </outline>
</glyph>
<glyph name="M" format="2">
  <advance width="1480"/>
  <outline>
    <contour>
      <point x="200" y="0" type="line"/>
      <point x="200" y="1500" type="line"/>
      <point x="441" y="1500" type="line"/>
      <point x="739" y="322" type="line"/>
      <point x="760" y="322" type="line"/>
      <point x="1046" y="1500" type="line"/>
      <point x="1303" y="1500" type="line"/>
      <point x="1303" y="0" type="line"/>
      <point x="1143" y="0" type="line"/>
      <point x="1143" y="1272" type="line"/>
      <point x="824" y="0" type="line"/>
      <point x="664" y="0" type="line"/>
      <point x="360" y="1266" type="line"/>
      <point x="360" y="0" type="line"/>
    </contour>
  </outline>
</glyph>
<glyph name="N" format="2">
  <advance width="1033"/>
  <outline>
    <contour>
      <point x="188.0" y="0.0" type="line"/>
      <point x="188.0" y="1500.0" type="line"/>
      <point x="328.0" y="1498.0" type="line"/>
      <point x="695.0" y="438.0" type="line"/>
      <point x="695.0" y="1500.0" type="line"/>
      <point x="845.0" y="1500.0" type="line"/>
      <point x="845.0" y="0.0" type="line"/>
      <point x="680.0" y="0.0" type="line"/>
      <point x="680.0" y="13.0" type="line"/>
      <point x="318.0" y="1104.0" type="line"/>
      <point x="318.0" y="0.0" type="line"/>
    </contour>
  </outline>
</glyph>
<glyph name="O" format="2">
  <advance width="1084"/>
  <outline>
    <contour>
      <point x="532" y="-22.0" type="line" smooth="yes"/>
      <point x="350" y="-22.0"/>
      <point x="152" y="200"/>
      <point x="152" y="368" type="qcurve" smooth="yes"/>
      <point x="152" y="1127" type="line" smooth="yes"/>
      <point x="152" y="1285"/>
      <point x="345" y="1518.0"/>
      <point x="529" y="1518.0" type="qcurve" smooth="yes"/>
      <point x="533" y="1518.0" type="line" smooth="yes"/>
      <point x="724" y="1518.0"/>
      <point x="932" y="1295"/>
      <point x="932" y="1127" type="qcurve" smooth="yes"/>
      <point x="932" y="368" type="line" smooth="yes"/>
      <point x="932" y="200"/>
      <point x="727" y="-22.0"/>
      <point x="537" y="-22.0" type="qcurve" smooth="yes"/>
    </contour>
    <contour>
      <point x="533" y="104.0" type="line" smooth="yes"/>
      <point x="594" y="104.0"/>
      <point x="730" y="213"/>
      <point x="730" y="318" type="qcurve" smooth="yes"/>
      <point x="730" y="1155" type="line" smooth="yes"/>
      <point x="730" y="1261"/>
      <point x="593" y="1374.0"/>
      <point x="533" y="1374.0" type="qcurve" smooth="yes"/>
      <point x="531" y="1374.0" type="line" smooth="yes"/>
      <point x="474" y="1374.0"/>
      <point x="353" y="1261"/>
      <point x="353" y="1155" type="qcurve" smooth="yes"/>
      <point x="353" y="318" type="line" smooth="yes"/>
      <point x="353" y="213"/>
      <point x="472" y="104.0"/>
      <point x="531" y="104.0" type="qcurve" smooth="yes"/>
    </contour>
  </outline>
</glyph>
<glyph name="P" format="2">
  <advance width="906"/>
  <outline>
    <contour>
      <point x="188.0" y="0.0" type="line"/>
      <point x="188.0" y="1500.0" type="line"/>
      <point x="385.0" y="1500.0" type="line"/>
      <point x="385.0" y="0.0" type="line"/>
    </contour>
    <contour>
      <point x="501.0" y="577.0" type="qcurve" smooth="yes"/>
      <point x="304.0" y="577.0" type="line"/>
      <point x="304.0" y="717.0" type="line"/>
      <point x="402.0" y="717.0" type="line" smooth="yes"/>
      <point x="499.0" y="717.0"/>
      <point x="604.0" y="796.0"/>
      <point x="604.0" y="870.0" type="qcurve" smooth="yes"/>
      <point x="604.0" y="1211.0" type="line" smooth="yes"/>
      <point x="604.0" y="1292.0"/>
      <point x="515.0" y="1366.0"/>
      <point x="443.0" y="1366.0" type="qcurve" smooth="yes"/>
      <point x="304.0" y="1366.0" type="line"/>
      <point x="304.0" y="1500.0" type="line"/>
      <point x="570.0" y="1500.0" type="line" smooth="yes"/>
      <point x="667.0" y="1500.0"/>
      <point x="795.0" y="1360.0"/>
      <point x="795.0" y="1249.0" type="qcurve" smooth="yes"/>
      <point x="795.0" y="836.0" type="line" smooth="yes"/>
      <point x="795.0" y="712.0"/>
      <point x="681.0" y="578.0"/>
    </contour>
  </outline>
</glyph>
<glyph name="R" format="2">
  <advance width="853"/>
  <outline>
    <contour>
      <point x="188.0" y="0.0" type="line"/>
      <point x="188.0" y="1500.0" type="line"/>
      <point x="382.0" y="1500.0" type="line"/>
      <point x="382.0" y="0.0" type="line"/>
    </contour>
    <contour>
      <point x="566.0" y="626.0" type="qcurve" smooth="yes"/>
      <point x="309.0" y="626.0" type="line"/>
      <point x="309.0" y="767.0" type="line"/>
      <point x="453.0" y="767.0" type="line" smooth="yes"/>
      <point x="532.0" y="767.0"/>
      <point x="656.0" y="828.0"/>
      <point x="656.0" y="884.0" type="qcurve" smooth="yes"/>
      <point x="656.0" y="1232.0" type="line" smooth="yes"/>
      <point x="656.0" y="1290.0"/>
      <point x="552.0" y="1362.0"/>
      <point x="438.0" y="1362.0" type="qcurve" smooth="yes"/>
      <point x="309.0" y="1362.0" type="line"/>
      <point x="309.0" y="1500.0" type="line"/>
      <point x="547.0" y="1500.0" type="line" smooth="yes"/>
      <point x="692.0" y="1500.0"/>
      <point x="837.0" y="1396.0"/>
      <point x="837.0" y="1279.0" type="qcurve" smooth="yes"/>
      <point x="837.0" y="843.0" type="line" smooth="yes"/>
      <point x="837.0" y="728.0"/>
      <point x="694.0" y="626.0"/>
    </contour>
    <contour>
      <point x="692.0" y="692.0" type="line"/>
      <point x="861.0" y="0.0" type="line"/>
      <point x="692.0" y="0.0" type="line"/>
      <point x="473.0" y="710.0" type="line"/>
    </contour>
  </outline>
</glyph>
<glyph name="T" format="2">
  <advance width="708"/>
  <outline>
    <contour>
      <point x="266.0" y="0.0" type="line"/>
      <point x="266.0" y="1480.0" type="line"/>
      <point x="458.0" y="1480.0" type="line"/>
      <point x="458.0" y="0.0" type="line"/>
    </contour>
    <contour>
      <point x="702.0" y="1340.0" type="line"/>
      <point x="6.0" y="1340.0" type="line"/>
      <point x="6.0" y="1500.0" type="line"/>
      <point x="702.0" y="1500.0" type="line"/>
    </contour>
  </outline>
</glyph>
<glyph name="V" format="2">
  <advance width="771"/>
  <outline>
    <contour>
      <point x="296" y="0" type="line"/>
      <point x="0" y="1500" type="line"/>
      <point x="191" y="1500" type="line"/>
      <point x="390" y="402" type="line"/>
      <point x="586" y="1500" type="line"/>
      <point x="771" y="1500" type="line"/>
      <point x="462" y="0" type="line"/>
    </contour>
  </outline>
</glyph>
<glyph name="W" format="2">
  <advance width="1042"/>
  <outline>
    <contour>
      <point x="232.0" y="0.0" type="line"/>
      <point x="-3.0" y="1500.0" type="line"/>
      <point x="159.0" y="1500.0" type="line"/>
      <point x="333.0" y="569.0" type="line"/>
      <point x="458.0" y="1500.0" type="line"/>
      <point x="614.0" y="1500.0" type="line"/>
      <point x="771.0" y="569.0" type="line"/>
      <point x="907.0" y="1500.0" type="line"/>
      <point x="1046.0" y="1500.0" type="line"/>
      <point x="820.0" y="0.0" type="line"/>
      <point x="717.0" y="0.0" type="line"/>
      <point x="535.0" y="1068.0" type="line"/>
      <point x="525.0" y="1070.0" type="line"/>
      <point x="331.0" y="0.0" type="line"/>
    </contour>
  </outline>
</glyph>
<glyph name="Z" format="2">
  <advance width="661"/>
  <outline>
    <contour>
      <point x="644.0" y="0.0" type="line"/>
      <point x="34.0" y="0.0" type="line"/>
      <point x="29.0" y="138.0" type="line"/>
      <point x="424.0" y="1362.0" type="line"/>
      <point x="24.0" y="1362.0" type="line"/>
      <point x="24.0" y="1500.0" type="line"/>
      <point x="614.0" y="1500.0" type="line"/>
      <point x="614.0" y="1372.0" type="line"/>
      <point x="210.0" y="138.0" type="line"/>
      <point x="644.0" y="138.0" type="line"/>
    </contour>
  </outline>
</glyph>
<glyph name="a" format="2">
  <advance width="907"/>
  <outline>
    <contour>
      <point x="104" y="813" type="line"/>
      <point x="123" y="909"/>
      <point x="323" y="1061"/>
      <point x="468" y="1061" type="qcurve" smooth="yes"/>
      <point x="630" y="1061"/>
      <point x="763" y="914"/>
      <point x="764" y="785" type="qcurve" smooth="yes"/>
      <point x="767" y="1" type="line"/>
      <point x="593" y="1" type="line"/>
      <point x="573" y="830" type="line" smooth="yes"/>
      <point x="572" y="866"/>
      <point x="503" y="937"/>
      <point x="430" y="937" type="qcurve" smooth="yes"/>
      <point x="371" y="937"/>
      <point x="277" y="847"/>
      <point x="263" y="788" type="qcurve"/>
    </contour>
    <contour>
      <point x="675" y="257" type="line"/>
      <point x="644" y="148"/>
      <point x="448" y="-10"/>
      <point x="354" y="-10" type="qcurve" smooth="yes"/>
      <point x="221" y="-10"/>
      <point x="72" y="161"/>
      <point x="72" y="310" type="qcurve" smooth="yes"/>
      <point x="72" y="472"/>
      <point x="250" y="638"/>
      <point x="396" y="638" type="qcurve" smooth="yes"/>
      <point x="477" y="638"/>
      <point x="603" y="605"/>
      <point x="675" y="564" type="qcurve"/>
      <point x="675" y="509" type="line"/>
      <point x="621" y="524"/>
      <point x="479" y="548"/>
      <point x="445" y="548" type="qcurve" smooth="yes"/>
      <point x="369" y="548"/>
      <point x="261" y="459"/>
      <point x="261" y="325" type="qcurve" smooth="yes"/>
      <point x="261" y="189"/>
      <point x="344" y="105"/>
      <point x="413" y="105" type="qcurve" smooth="yes"/>
      <point x="462" y="105"/>
      <point x="598" y="197"/>
      <point x="674" y="274" type="qcurve"/>
    </contour>
  </outline>
</glyph>
<glyph name="asciicircum" format="2">
  <advance width="1072"/>
  <outline>
    <contour>
      <point x="608.0" y="1513.0" type="line"/>
      <point x="984.0" y="833.0" type="line"/>
      <point x="812.0" y="833.0" type="line"/>
      <point x="536.0" y="1390.0" type="line"/>
      <point x="262.0" y="833.0" type="line"/>
      <point x="88.0" y="833.0" type="line"/>
      <point x="468.0" y="1513.0" type="line"/>
    </contour>
  </outline>
</glyph>
<glyph name="b" format="2">
  <advance width="990"/>
  <outline>
    <contour>
      <point x="151.0" y="2.0" type="line"/>
      <point x="151.0" y="1540.0" type="line"/>
      <point x="326.0" y="1540.0" type="line"/>
      <point x="316.0" y="2.0" type="line"/>
    </contour>
    <contour>
      <point x="285.0" y="736.0" type="line" smooth="yes"/>
      <point x="285.0" y="872.0"/>
      <point x="443.0" y="1062.0"/>
      <point x="597.0" y="1062.0" type="qcurve" smooth="yes"/>
      <point x="611.0" y="1062.0" type="line" smooth="yes"/>
      <point x="756.0" y="1062.0"/>
      <point x="898.0" y="854.0"/>
      <point x="898.0" y="736.0" type="qcurve" smooth="yes"/>
      <point x="898.0" y="365.0" type="line" smooth="yes"/>
      <point x="898.0" y="210.0"/>
      <point x="775.0" y="-12.0"/>
      <point x="610.0" y="-12.0" type="qcurve" smooth="yes"/>
      <point x="604.0" y="-12.0" type="line" smooth="yes"/>
      <point x="452.0" y="-12.0"/>
      <point x="285.0" y="197.0"/>
      <point x="285.0" y="277.0" type="qcurve" smooth="yes"/>
    </contour>
    <contour>
      <point x="358.0" y="701.0" type="qcurve" smooth="yes"/>
      <point x="358.0" y="352.0" type="line" smooth="yes"/>
      <point x="358.0" y="236.0"/>
      <point x="488.0" y="92.0"/>
      <point x="563.0" y="92.0" type="qcurve" smooth="yes"/>
      <point x="568.0" y="92.0" type="line" smooth="yes"/>
      <point x="616.0" y="92.0"/>
      <point x="733.0" y="224.0"/>
      <point x="733.0" y="352.0" type="qcurve" smooth="yes"/>
      <point x="733.0" y="726.0" type="line" smooth="yes"/>
      <point x="733.0" y="852.0"/>
      <point x="588.0" y="958.0"/>
      <point x="542.0" y="958.0" type="qcurve" smooth="yes"/>
      <point x="537.0" y="958.0" type="line" smooth="yes"/>
      <point x="476.0" y="958.0"/>
      <point x="358.0" y="797.0"/>
    </contour>
  </outline>
</glyph>
<glyph name="backslash" format="2">
  <advance width="610"/>
  <outline>
    <contour>
      <point x="562.0" y="0.0" type="line"/>
      <point x="388.0" y="0.0" type="line"/>
      <point x="-22.0" y="1500.0" type="line"/>
      <point x="152.0" y="1500.0" type="line"/>
    </contour>
  </outline>
</glyph>
<glyph name="braceleft" format="2">
  <advance width="506"/>
  <outline>
    <contour>
      <point x="44.0" y="541.0" type="line"/>
      <point x="99.0" y="541.0"/>
      <point x="226.0" y="505.0"/>
      <point x="226.0" y="445.0" type="qcurve" smooth="yes"/>
      <point x="226.0" y="415.0"/>
      <point x="176.0" y="321.0"/>
      <point x="145.0" y="278.0" type="qcurve" smooth="yes"/>
      <point x="109.0" y="229.0"/>
      <point x="37.0" y="94.0"/>
      <point x="37.0" y="-28.0" type="qcurve" smooth="yes"/>
      <point x="37.0" y="-122.0"/>
      <point x="234.0" y="-303.0"/>
      <point x="420.0" y="-363.0" type="qcurve"/>
      <point x="490.0" y="-255.0" type="line"/>
      <point x="385.0" y="-206.0"/>
      <point x="231.0" y="-48.0"/>
      <point x="231.0" y="-11.0" type="qcurve" smooth="yes"/>
      <point x="231.0" y="70.0"/>
      <point x="286.0" y="194.0"/>
      <point x="316.0" y="241.0" type="qcurve" smooth="yes"/>
      <point x="347.0" y="290.0"/>
      <point x="404.0" y="386.0"/>
      <point x="404.0" y="461.0" type="qcurve" smooth="yes"/>
      <point x="404.0" y="496.0"/>
      <point x="340.0" y="580.0"/>
      <point x="274.0" y="601.0" type="qcurve"/>
      <point x="341.0" y="624.0"/>
      <point x="404.0" y="726.0"/>
      <point x="404.0" y="765.0" type="qcurve" smooth="yes"/>
      <point x="404.0" y="836.0"/>
      <point x="352.0" y="930.0"/>
      <point x="323.0" y="979.0" type="qcurve" smooth="yes"/>
      <point x="297.0" y="1021.0"/>
      <point x="232.0" y="1152.0"/>
      <point x="232.0" y="1227.0" type="qcurve" smooth="yes"/>
      <point x="232.0" y="1269.0"/>
      <point x="375.0" y="1437.0"/>
      <point x="497.0" y="1458.0" type="qcurve"/>
      <point x="426.0" y="1572.0" type="line"/>
      <point x="244.0" y="1530.0"/>
      <point x="36.0" y="1320.0"/>
      <point x="36.0" y="1238.0" type="qcurve" smooth="yes"/>
      <point x="36.0" y="1140.0"/>
      <point x="117.0" y="993.0"/>
      <point x="149.0" y="949.0" type="qcurve" smooth="yes"/>
      <point x="180.0" y="907.0"/>
      <point x="226.0" y="817.0"/>
      <point x="226.0" y="773.0" type="qcurve" smooth="yes"/>
      <point x="226.0" y="710.0"/>
      <point x="113" y="681.0"/>
      <point x="44.0" y="681.0" type="qcurve"/>
    </contour>
  </outline>
</glyph>
<glyph name="braceright" format="2">
  <advance width="506"/>
  <outline>
    <contour>
      <point x="462.0" y="541.0" type="qcurve"/>
      <point x="462.0" y="681.0" type="line"/>
      <point x="430.0" y="681.0"/>
      <point x="340.0" y="710.0"/>
      <point x="340.0" y="773.0" type="qcurve" smooth="yes"/>
      <point x="340.0" y="817.0"/>
      <point x="386.0" y="907.0"/>
      <point x="417.0" y="949.0" type="qcurve" smooth="yes"/>
      <point x="449.0" y="993.0"/>
      <point x="530.0" y="1120.0"/>
      <point x="530.0" y="1218.0" type="qcurve" smooth="yes"/>
      <point x="530.0" y="1300.0"/>
      <point x="322.0" y="1510.0"/>
      <point x="140.0" y="1552.0" type="qcurve"/>
      <point x="69.0" y="1438.0" type="line"/>
      <point x="191.0" y="1417.0"/>
      <point x="334.0" y="1249.0"/>
      <point x="334.0" y="1207.0" type="qcurve" smooth="yes"/>
      <point x="334.0" y="1132.0"/>
      <point x="269.0" y="1021.0"/>
      <point x="243.0" y="979.0" type="qcurve" smooth="yes"/>
      <point x="214.0" y="930.0"/>
      <point x="162.0" y="836.0"/>
      <point x="162.0" y="765.0" type="qcurve" smooth="yes"/>
      <point x="162.0" y="726.0"/>
      <point x="225.0" y="624.0"/>
      <point x="292.0" y="601.0" type="qcurve"/>
      <point x="226.0" y="580.0"/>
      <point x="162.0" y="496.0"/>
      <point x="162.0" y="461.0" type="qcurve" smooth="yes"/>
      <point x="162.0" y="386.0"/>
      <point x="219.0" y="290.0"/>
      <point x="250.0" y="241.0" type="qcurve" smooth="yes"/>
      <point x="280.0" y="194.0"/>
      <point x="335.0" y="90.0"/>
      <point x="335.0" y="9.0" type="qcurve" smooth="yes"/>
      <point x="335.0" y="-28.0"/>
      <point x="181.0" y="-186.0"/>
      <point x="76.0" y="-235.0" type="qcurve"/>
      <point x="146.0" y="-343.0" type="line"/>
      <point x="332.0" y="-283.0"/>
      <point x="529.0" y="-102.0"/>
      <point x="529.0" y="-8.0" type="qcurve" smooth="yes"/>
      <point x="529.0" y="114.0"/>
      <point x="457.0" y="229.0"/>
      <point x="421.0" y="278.0" type="qcurve" smooth="yes"/>
      <point x="390.0" y="321.0"/>
      <point x="340.0" y="415.0"/>
      <point x="340.0" y="445.0" type="qcurve" smooth="yes"/>
      <point x="340.0" y="505.0"/>
      <point x="407.0" y="541.0"/>
    </contour>
  </outline>
</glyph>
<glyph name="bracketleft" format="2">
  <advance width="506"/>
  <outline>
    <contour>
      <point x="94.0" y="-280.0" type="line"/>
      <point x="94.0" y="1540.0" type="line"/>
      <point x="274.0" y="1540.0" type="line"/>
      <point x="274.0" y="-280.0" type="line"/>
    </contour>
    <contour>
      <point x="456.0" y="-280.0" type="line"/>
      <point x="219.0" y="-280.0" type="line"/>
      <point x="219.0" y="-142.0" type="line"/>
      <point x="456.0" y="-142.0" type="line"/>
    </contour>
    <contour>
      <point x="456.0" y="1402.0" type="line"/>
      <point x="214.0" y="1402.0" type="line"/>
      <point x="214.0" y="1540.0" type="line"/>
      <point x="456.0" y="1540.0" type="line"/>
    </contour>
  </outline>
</glyph>
<glyph name="c" format="2">
  <advance width="783"/>
  <outline>
    <contour>
      <point x="747.0" y="377.0" type="line"/>
      <point x="746.0" y="313.0" type="line" smooth="yes"/>
      <point x="743.0" y="169.0"/>
      <point x="609.0" y="-15.0"/>
      <point x="437.0" y="-15.0" type="qcurve" smooth="yes"/>
      <point x="425.0" y="-15.0" type="line" smooth="yes"/>
      <point x="273.0" y="-15.0"/>
      <point x="92.0" y="150.0"/>
      <point x="92.0" y="354.0" type="qcurve" smooth="yes"/>
      <point x="92.0" y="731.0" type="line" smooth="yes"/>
      <point x="92.0" y="884.0"/>
      <point x="266.0" y="1062.0"/>
      <point x="416.0" y="1062.0" type="qcurve" smooth="yes"/>
      <point x="438.0" y="1062.0" type="line" smooth="yes"/>
      <point x="586.0" y="1062.0"/>
      <point x="741.0" y="902.0"/>
      <point x="745.0" y="753.0" type="qcurve" smooth="yes"/>
      <point x="747.0" y="646.0" type="line"/>
      <point x="595.0" y="647.0" type="line"/>
      <point x="594.0" y="734.0" type="line" smooth="yes"/>
      <point x="596.0" y="833.0"/>
      <point x="503.0" y="959.0"/>
      <point x="436.0" y="959.0" type="qcurve" smooth="yes"/>
      <point x="435.0" y="959.0" type="line" smooth="yes"/>
      <point x="370.0" y="959.0"/>
      <point x="278.0" y="857.0"/>
      <point x="278.0" y="741.0" type="qcurve" smooth="yes"/>
      <point x="278.0" y="305.0" type="line" smooth="yes"/>
      <point x="278.0" y="199.0"/>
      <point x="368.0" y="94.0"/>
      <point x="441.0" y="94.0" type="qcurve" smooth="yes"/>
      <point x="450.0" y="94.0" type="line" smooth="yes"/>
      <point x="511.0" y="94.0"/>
      <point x="593.0" y="220.0"/>
      <point x="589.0" y="306.0" type="qcurve" smooth="yes"/>
      <point x="589.0" y="379.0" type="line"/>
    </contour>
  </outline>
</glyph>
<glyph name="d" format="2">
  <advance width="970"/>
  <outline>
    <contour>
      <point x="840" y="0" type="line"/>
      <point x="659" y="0" type="line"/>
      <point x="652" y="1540" type="line"/>
      <point x="830" y="1540" type="line"/>
    </contour>
    <contour>
      <point x="719" y="704" type="qcurve" smooth="yes"/>
      <point x="719" y="295" type="line" smooth="yes"/>
      <point x="719" y="193"/>
      <point x="551" y="-15.0"/>
      <point x="413" y="-15" type="qcurve" smooth="yes"/>
      <point x="409" y="-15" type="line" smooth="yes"/>
      <point x="250" y="-15"/>
      <point x="94" y="197"/>
      <point x="94" y="367" type="qcurve" smooth="yes"/>
      <point x="94" y="732" type="line" smooth="yes"/>
      <point x="94" y="867"/>
      <point x="262" y="1063"/>
      <point x="421" y="1063" type="qcurve" smooth="yes"/>
      <point x="425" y="1063" type="line" smooth="yes"/>
      <point x="574" y="1063"/>
      <point x="719.0" y="881.0"/>
    </contour>
    <contour>
      <point x="666" y="682" type="line" smooth="yes"/>
      <point x="664" y="841"/>
      <point x="549.0" y="937.0"/>
      <point x="467" y="937" type="qcurve" smooth="yes"/>
      <point x="462" y="937" type="line" smooth="yes"/>
      <point x="385.0" y="937.0"/>
      <point x="285" y="834"/>
      <point x="285" y="709" type="qcurve" smooth="yes"/>
      <point x="285" y="338" type="line" smooth="yes"/>
      <point x="285" y="208"/>
      <point x="385.0" y="103.0"/>
      <point x="450" y="103" type="qcurve" smooth="yes"/>
      <point x="455" y="103" type="line" smooth="yes"/>
      <point x="539.0" y="103.0"/>
      <point x="671" y="259"/>
      <point x="670" y="367" type="qcurve" smooth="yes"/>
    </contour>
  </outline>
</glyph>
<glyph name="dollar" format="2">
  <advance width="796"/>
  <outline>
    <contour>
      <point x="560.0" y="354.0" type="line" smooth="yes"/>
      <point x="560.0" y="480.0"/>
      <point x="419" y="627"/>
      <point x="315.0" y="719.0" type="qcurve" smooth="yes"/>
      <point x="217.0" y="805.0"/>
      <point x="49" y="1015"/>
      <point x="49.0" y="1195.0" type="qcurve" smooth="yes"/>
      <point x="49.0" y="1230.0" type="line" smooth="yes"/>
      <point x="49" y="1360"/>
      <point x="268.0" y="1522.0"/>
      <point x="380.0" y="1522.0" type="qcurve" smooth="yes"/>
      <point x="394.0" y="1522.0" type="line" smooth="yes"/>
      <point x="499.0" y="1522.0"/>
      <point x="700.0" y="1381.0"/>
      <point x="695.0" y="1246.0" type="qcurve" smooth="yes"/>
      <point x="695.0" y="1076.0" type="line"/>
      <point x="528.0" y="1076.0" type="line"/>
      <point x="528.0" y="1257.0" type="line" smooth="yes"/>
      <point x="528.0" y="1324.0"/>
      <point x="444" y="1381"/>
      <point x="398.0" y="1381.0" type="qcurve" smooth="yes"/>
      <point x="362.0" y="1381.0" type="line" smooth="yes"/>
      <point x="310" y="1381"/>
      <point x="218" y="1294"/>
      <point x="218.0" y="1224.0" type="qcurve" smooth="yes"/>
      <point x="218.0" y="1181.0" type="line" smooth="yes"/>
      <point x="218" y="1091.0"/>
      <point x="342" y="937"/>
      <point x="431.0" y="866.0" type="qcurve" smooth="yes"/>
      <point x="521" y="794"/>
      <point x="725" y="553"/>
      <point x="725.0" y="368.0" type="qcurve" smooth="yes"/>
      <point x="725.0" y="335.0" type="line" smooth="yes"/>
      <point x="725" y="169"/>
      <point x="513.0" y="-22.0"/>
      <point x="386.0" y="-22.0" type="qcurve" smooth="yes"/>
      <point x="372.0" y="-22.0" type="line" smooth="yes"/>
      <point x="250.0" y="-22.0"/>
      <point x="42" y="174"/>
      <point x="41.0" y="331.0" type="qcurve" smooth="yes"/>
      <point x="41.0" y="476.0" type="line"/>
      <point x="203.0" y="476.0" type="line"/>
      <point x="203.0" y="268.0" type="line" smooth="yes"/>
      <point x="203.0" y="194.0"/>
      <point x="293.0" y="78.0"/>
      <point x="375.0" y="78.0" type="qcurve" smooth="yes"/>
      <point x="392.0" y="78.0" type="line" smooth="yes"/>
      <point x="478.0" y="78.0"/>
      <point x="560.0" y="228.0"/>
      <point x="560.0" y="313.0" type="qcurve" smooth="yes"/>
    </contour>
    <contour>
      <point x="303.0" y="-110.0" type="line"/>
      <point x="343.0" y="351.0" type="line"/>
      <point x="423.0" y="351.0" type="line"/>
      <point x="463.0" y="-110.0" type="line"/>
    </contour>
    <contour>
      <point x="334.0" y="1187.0" type="line"/>
      <point x="284.0" y="1623.0" type="line"/>
      <point x="464.0" y="1623.0" type="line"/>
      <point x="414.0" y="1187.0" type="line"/>
    </contour>
  </outline>
</glyph>
<glyph name="e" format="2">
  <advance width="840"/>
  <outline>
    <contour>
      <point x="779.0" y="347.0" type="line"/>
      <point x="779.0" y="334.0" type="line" smooth="yes"/>
      <point x="768.0" y="170.0"/>
      <point x="626.0" y="-15.0"/>
      <point x="454.0" y="-15.0" type="qcurve" smooth="yes"/>
      <point x="437.0" y="-15.0" type="line" smooth="yes"/>
      <point x="275.0" y="-15.0"/>
      <point x="90.0" y="136.0"/>
      <point x="90.0" y="353.0" type="qcurve" smooth="yes"/>
      <point x="90.0" y="733.0" type="line" smooth="yes"/>
      <point x="90.0" y="882.0"/>
      <point x="278.0" y="1062.0"/>
      <point x="429.0" y="1062.0" type="qcurve" smooth="yes"/>
      <point x="457.0" y="1062.0" type="line" smooth="yes"/>
      <point x="626.0" y="1062.0"/>
      <point x="770.0" y="827.0"/>
      <point x="787.0" y="601.0" type="qcurve" smooth="yes"/>
      <point x="796.0" y="491.0" type="line"/>
      <point x="76.0" y="491.0" type="line"/>
      <point x="76.0" y="580.0" type="line"/>
      <point x="615.0" y="580.0" type="line"/>
      <point x="613.0" y="682.0" type="line" smooth="yes"/>
      <point x="613.0" y="795.0"/>
      <point x="521.0" y="969.0"/>
      <point x="443.0" y="969.0" type="qcurve" smooth="yes"/>
      <point x="445.0" y="969.0" type="line" smooth="yes"/>
      <point x="388.0" y="969.0"/>
      <point x="266.0" y="846.0"/>
      <point x="266.0" y="704.0" type="qcurve" smooth="yes"/>
      <point x="266.0" y="329.0" type="line" smooth="yes"/>
      <point x="266.0" y="190.0"/>
      <point x="385.0" y="74.0"/>
      <point x="445.0" y="74.0" type="qcurve" smooth="yes"/>
      <point x="451.0" y="74.0" type="line" smooth="yes"/>
      <point x="499.0" y="74.0"/>
      <point x="605.0" y="193.0"/>
      <point x="614.0" y="296.0" type="qcurve" smooth="yes"/>
      <point x="620.0" y="362.0" type="line"/>
    </contour>
  </outline>
</glyph>
<glyph name="f" format="2">
  <advance width="504"/>
  <outline>
    <contour>
      <point x="523" y="877" type="line"/>
      <point x="46" y="888" type="line"/>
      <point x="46" y="1030" type="line"/>
      <point x="523" y="1030" type="line"/>
    </contour>
    <contour>
      <point x="336" y="1269" type="qcurve" smooth="yes"/>
      <point x="346" y="0" type="line"/>
      <point x="154" y="0" type="line"/>
      <point x="154" y="1353" type="line" smooth="yes"/>
      <point x="154" y="1476"/>
      <point x="312" y="1605"/>
      <point x="425" y="1605" type="qcurve" smooth="yes"/>
      <point x="523" y="1605"/>
      <point x="583" y="1582"/>
      <point x="599" y="1576" type="qcurve"/>
      <point x="552" y="1427" type="line"/>
      <point x="544" y="1429"/>
      <point x="489" y="1448"/>
      <point x="444" y="1448" type="qcurve" smooth="yes"/>
      <point x="386" y="1448"/>
      <point x="335" y="1361"/>
    </contour>
  </outline>
</glyph>
<glyph name="g" format="2">
  <advance width="944"/>
  <outline>
    <contour>
      <point x="669" y="744" type="qcurve" smooth="yes"/>
      <point x="669" y="280" type="line" smooth="yes"/>
      <point x="669" y="158"/>
      <point x="514" y="-10"/>
      <point x="397" y="-10" type="qcurve" smooth="yes"/>
      <point x="389" y="-10" type="line" smooth="yes"/>
      <point x="230" y="-10"/>
      <point x="94" y="192"/>
      <point x="94" y="372" type="qcurve" smooth="yes"/>
      <point x="94" y="732" type="line" smooth="yes"/>
      <point x="94" y="877"/>
      <point x="250" y="1063"/>
      <point x="389" y="1063" type="qcurve" smooth="yes"/>
      <point x="393" y="1063" type="line" smooth="yes"/>
      <point x="514" y="1063"/>
      <point x="669" y="871"/>
    </contour>
    <contour>
      <point x="635" y="682" type="line" smooth="yes"/>
      <point x="635" y="810"/>
      <point x="511" y="937"/>
      <point x="431" y="937" type="qcurve" smooth="yes"/>
      <point x="427" y="937" type="line" smooth="yes"/>
      <point x="352" y="937"/>
      <point x="286" y="834"/>
      <point x="286" y="709" type="qcurve" smooth="yes"/>
      <point x="286" y="333" type="line" smooth="yes"/>
      <point x="286" y="203"/>
      <point x="362" y="110"/>
      <point x="425" y="110" type="qcurve" smooth="yes"/>
      <point x="429" y="110" type="line" smooth="yes"/>
      <point x="507" y="110"/>
      <point x="635" y="214"/>
      <point x="635" y="382" type="qcurve" smooth="yes"/>
    </contour>
    <contour>
      <point x="155" y="-246" type="line"/>
      <point x="189" y="-271"/>
      <point x="316" y="-334"/>
      <point x="400" y="-334" type="qcurve" smooth="yes"/>
      <point x="506" y="-334"/>
      <point x="635" y="-165"/>
      <point x="637" y="29" type="qcurve" smooth="yes"/>
      <point x="637" y="1040" type="line"/>
      <point x="804" y="1040" type="line"/>
      <point x="804" y="-8" type="line" smooth="yes"/>
      <point x="804" y="-255"/>
      <point x="590" y="-490"/>
      <point x="416" y="-490" type="qcurve" smooth="yes"/>
      <point x="314" y="-490"/>
      <point x="190" y="-442"/>
      <point x="144" y="-414" type="qcurve"/>
    </contour>
  </outline>
</glyph>
<glyph name="j" format="2">
  <advance width="536"/>
  <outline>
    <contour>
      <point x="382.0" y="-189.0" type="line" smooth="yes"/>
      <point x="382.0" y="-431.0"/>
      <point x="215.0" y="-498.0"/>
      <point x="89.0" y="-498.0" type="qcurve" smooth="yes"/>
      <point x="-12.0" y="-498.0"/>
      <point x="-55.0" y="-489.0"/>
      <point x="-69.0" y="-481.0" type="qcurve"/>
      <point x="-54.0" y="-334.0" type="line"/>
      <point x="-44.0" y="-339.0"/>
      <point x="-5.0" y="-354.0"/>
      <point x="60.0" y="-354.0" type="qcurve" smooth="yes"/>
      <point x="118.0" y="-354.0"/>
      <point x="212.0" y="-286.0"/>
      <point x="212.0" y="-162.0" type="qcurve" smooth="yes"/>
      <point x="212.0" y="1042.0" type="line"/>
      <point x="382.0" y="1042.0" type="line"/>
    </contour>
    <contour>
      <point x="301.0" y="1273.0" type="line" smooth="yes"/>
      <point x="356.0" y="1273.0"/>
      <point x="405.0" y="1330.0"/>
      <point x="405.0" y="1373.0" type="qcurve" smooth="yes"/>
      <point x="405.0" y="1379.0" type="line" smooth="yes"/>
      <point x="405.0" y="1422.0"/>
      <point x="356.0" y="1480.0"/>
      <point x="301.0" y="1480.0" type="qcurve" smooth="yes"/>
      <point x="299.0" y="1480.0" type="line" smooth="yes"/>
      <point x="247.0" y="1480.0"/>
      <point x="199.0" y="1422.0"/>
      <point x="199.0" y="1379.0" type="qcurve" smooth="yes"/>
      <point x="199.0" y="1373.0" type="line" smooth="yes"/>
      <point x="199.0" y="1329.0"/>
      <point x="246.0" y="1273.0"/>
      <point x="299.0" y="1273.0" type="qcurve" smooth="yes"/>
    </contour>
    <contour>
      <point x="272.0" y="900.0" type="line"/>
      <point x="140.0" y="880.0" type="line"/>
      <point x="140.0" y="1022.0" type="line"/>
      <point x="272.0" y="1042.0" type="line"/>
    </contour>
  </outline>
</glyph>
<glyph name="l" format="2">
  <advance width="527"/>
  <outline>
    <contour>
      <point x="152" y="86" type="qcurve" smooth="yes"/>
      <point x="136" y="1539" type="line"/>
      <point x="316" y="1539" type="line"/>
      <point x="336" y="0" type="line"/>
      <point x="222" y="-21"/>
      <point x="153" y="26"/>
    </contour>
    <contour>
      <point x="527" y="68" type="line"/>
      <point x="336" y="0" type="line"/>
      <point x="174" y="153" type="line"/>
      <point x="524" y="208" type="line"/>
    </contour>
  </outline>
</glyph>
<glyph name="n" format="2">
  <advance width="938"/>
  <outline>
    <contour>
      <point x="140" y="0" type="line"/>
      <point x="140" y="1040" type="line"/>
      <point x="322" y="1040" type="line"/>
      <point x="332" y="0" type="line"/>
    </contour>
    <contour>
      <point x="286" y="636" type="line"/>
      <point x="287" y="755"/>
      <point x="459" y="1060"/>
      <point x="603" y="1060" type="qcurve" smooth="yes"/>
      <point x="717" y="1060"/>
      <point x="806" y="945"/>
      <point x="806" y="829" type="qcurve" smooth="yes"/>
      <point x="805" y="0" type="line"/>
      <point x="612" y="0" type="line"/>
      <point x="612" y="816" type="line" smooth="yes"/>
      <point x="612" y="876"/>
      <point x="563" y="920"/>
      <point x="537" y="920" type="qcurve" smooth="yes"/>
      <point x="475" y="920"/>
      <point x="329" y="738"/>
      <point x="312" y="594" type="qcurve"/>
    </contour>
  </outline>
</glyph>
<glyph name="nine" format="2">
  <advance width="814"/>
  <outline>
    <contour>
      <point x="566.0" y="826.0" type="qcurve"/>
      <point x="566.0" y="1074.0" type="line" smooth="yes"/>
      <point x="566.0" y="1213.0"/>
      <point x="483" y="1392"/>
      <point x="394" y="1392.0" type="qcurve" smooth="yes"/>
      <point x="347.0" y="1392.0" type="line" smooth="yes"/>
      <point x="279.0" y="1392.0"/>
      <point x="192" y="1224.0"/>
      <point x="192.0" y="1052.0" type="qcurve" smooth="yes"/>
      <point x="192.0" y="938.0" type="line" smooth="yes"/>
      <point x="192.0" y="800.0"/>
      <point x="316.0" y="649.0"/>
      <point x="384.0" y="649.0" type="qcurve" smooth="yes"/>
      <point x="393.0" y="649.0" type="line" smooth="yes"/>
      <point x="474.0" y="649.0"/>
      <point x="573.0" y="829"/>
      <point x="573.0" y="961.0" type="qcurve" smooth="yes"/>
      <point x="573.0" y="987.0" type="line"/>
      <point x="626.0" y="973.0" type="line"/>
      <point x="626.0" y="959.0" type="line" smooth="yes"/>
      <point x="626.0" y="751.0"/>
      <point x="448.0" y="522.0"/>
      <point x="321.0" y="522.0" type="qcurve" smooth="yes"/>
      <point x="316.0" y="522.0" type="line" smooth="yes"/>
      <point x="173.0" y="522.0"/>
      <point x="38.0" y="723.0"/>
      <point x="38.0" y="898.0" type="qcurve" smooth="yes"/>
      <point x="38.0" y="1101.0" type="line" smooth="yes"/>
      <point x="38.0" y="1290.0"/>
      <point x="214.0" y="1514.0"/>
      <point x="372.0" y="1514.0" type="qcurve" smooth="yes"/>
      <point x="377.0" y="1514.0" type="line" smooth="yes"/>
      <point x="557.0" y="1514.0"/>
      <point x="708.0" y="1311.0"/>
      <point x="716.0" y="1133.0" type="qcurve" smooth="yes"/>
      <point x="718.0" y="829.0" type="line" smooth="yes"/>
      <point x="730.0" y="376.0"/>
      <point x="368" y="-21"/>
      <point x="166.0" y="-13.0" type="qcurve" smooth="yes"/>
      <point x="142.0" y="-13.0" type="line"/>
      <point x="142.0" y="153.0" type="line"/>
      <point x="156.0" y="154.0" type="line" smooth="yes"/>
      <point x="369" y="169"/>
      <point x="562.0" y="450.0"/>
    </contour>
  </outline>
</glyph>
<glyph name="one" format="2">
  <advance width="565"/>
  <outline>
    <contour>
      <point x="190.0" y="0.0" type="line"/>
      <point x="190.0" y="1500.0" type="line"/>
      <point x="375.0" y="1500.0" type="line"/>
      <point x="375.0" y="0.0" type="line"/>
    </contour>
  </outline>
</glyph>
<glyph name="p" format="2">
  <advance width="970"/>
  <outline>
    <contour>
      <point x="140" y="-470" type="line"/>
      <point x="140" y="1040" type="line"/>
      <point x="304" y="1040" type="line"/>
      <point x="334" y="-470" type="line"/>
    </contour>
    <contour>
      <point x="225" y="549" type="line" smooth="yes"/>
      <point x="225" y="778"/>
      <point x="434" y="1061"/>
      <point x="589" y="1061" type="qcurve" smooth="yes"/>
      <point x="603" y="1061" type="line" smooth="yes"/>
      <point x="718" y="1061.0"/>
      <point x="876.0" y="889"/>
      <point x="876" y="734" type="qcurve" smooth="yes"/>
      <point x="876" y="355" type="line" smooth="yes"/>
      <point x="876.0" y="167.0"/>
      <point x="717.0" y="-12.0"/>
      <point x="578" y="-12" type="qcurve" smooth="yes"/>
      <point x="574" y="-12" type="line" smooth="yes"/>
      <point x="407" y="-12"/>
      <point x="225" y="293"/>
      <point x="225" y="458" type="qcurve" smooth="yes"/>
    </contour>
    <contour>
      <point x="313" y="722.0" type="qcurve" smooth="yes"/>
      <point x="313" y="419.0" type="line" smooth="yes"/>
      <point x="313" y="266.0"/>
      <point x="448" y="106.0"/>
      <point x="533" y="106.0" type="qcurve" smooth="yes"/>
      <point x="539" y="106.0" type="line" smooth="yes"/>
      <point x="586" y="106.0"/>
      <point x="689" y="209.0"/>
      <point x="689" y="332.0" type="qcurve" smooth="yes"/>
      <point x="689" y="713.0" type="line" smooth="yes"/>
      <point x="689" y="840.0"/>
      <point x="577" y="940.0"/>
      <point x="530" y="940.0" type="qcurve" smooth="yes"/>
      <point x="524" y="940.0" type="line" smooth="yes"/>
      <point x="460" y="940.0"/>
      <point x="313" y="785.0"/>
    </contour>
  </outline>
</glyph>
<glyph name="period" format="2">
  <advance width="695"/>
  <outline>
    <contour>
      <point x="346" y="-10" type="line" smooth="yes"/>
      <point x="412" y="-10"/>
      <point x="510" y="78"/>
      <point x="510" y="151" type="qcurve" smooth="yes"/>
      <point x="510" y="180" type="line" smooth="yes"/>
      <point x="510" y="255"/>
      <point x="417" y="341"/>
      <point x="346" y="341" type="qcurve" smooth="yes"/>
      <point x="343" y="341" type="line" smooth="yes"/>
      <point x="279" y="341"/>
      <point x="185" y="255"/>
      <point x="185" y="180" type="qcurve" smooth="yes"/>
      <point x="185" y="151" type="line" smooth="yes"/>
      <point x="185" y="73"/>
      <point x="277" y="-10"/>
      <point x="343" y="-10" type="qcurve" smooth="yes"/>
    </contour>
  </outline>
</glyph>
<glyph name="q" format="2">
  <advance width="948"/>
  <outline>
    <contour>
      <point x="808" y="-480" type="line"/>
      <point x="633" y="-480" type="line"/>
      <point x="643" y="1060" type="line"/>
      <point x="808" y="1060" type="line"/>
    </contour>
    <contour>
      <point x="687" y="704" type="qcurve" smooth="yes"/>
      <point x="687" y="305" type="line" smooth="yes"/>
      <point x="687" y="203"/>
      <point x="518" y="-15"/>
      <point x="391" y="-15" type="qcurve" smooth="yes"/>
      <point x="387" y="-15" type="line" smooth="yes"/>
      <point x="228" y="-15"/>
      <point x="92" y="197"/>
      <point x="92" y="367" type="qcurve" smooth="yes"/>
      <point x="92" y="732" type="line" smooth="yes"/>
      <point x="92" y="867"/>
      <point x="240" y="1063"/>
      <point x="399" y="1063" type="qcurve" smooth="yes"/>
      <point x="403" y="1063" type="line" smooth="yes"/>
      <point x="552" y="1063"/>
      <point x="687" y="861"/>
    </contour>
    <contour>
      <point x="624" y="682" type="line" smooth="yes"/>
      <point x="624" y="811"/>
      <point x="519" y="937"/>
      <point x="445" y="937" type="qcurve" smooth="yes"/>
      <point x="440" y="937" type="line" smooth="yes"/>
      <point x="383" y="937"/>
      <point x="283" y="834"/>
      <point x="283" y="709" type="qcurve" smooth="yes"/>
      <point x="283" y="338" type="line" smooth="yes"/>
      <point x="283" y="208"/>
      <point x="363" y="103"/>
      <point x="448" y="103" type="qcurve" smooth="yes"/>
      <point x="453" y="103" type="line" smooth="yes"/>
      <point x="517" y="103"/>
      <point x="624" y="219"/>
      <point x="624" y="367" type="qcurve" smooth="yes"/>
    </contour>
  </outline>
</glyph>
<glyph name="question" format="2">
  <advance width="905"/>
  <outline>
    <contour>
      <point x="347" y="-10" type="line" smooth="yes"/>
      <point x="408" y="-10"/>
      <point x="500" y="73"/>
      <point x="500" y="142" type="qcurve" smooth="yes"/>
      <point x="500" y="171" type="line" smooth="yes"/>
      <point x="500" y="243"/>
      <point x="412" y="324"/>
      <point x="347" y="324" type="qcurve" smooth="yes"/>
      <point x="344" y="324" type="line" smooth="yes"/>
      <point x="285" y="324"/>
      <point x="197" y="243"/>
      <point x="197" y="171" type="qcurve" smooth="yes"/>
      <point x="197" y="142" type="line" smooth="yes"/>
      <point x="197" y="68"/>
      <point x="282" y="-10"/>
      <point x="344" y="-10" type="qcurve" smooth="yes"/>
    </contour>
    <contour>
      <point x="427" y="503" type="line"/>
      <point x="247" y="503" type="line"/>
      <point x="245" y="819" type="line"/>
      <point x="422" y="792"/>
      <point x="590" y="957"/>
      <point x="590" y="1111" type="qcurve" smooth="yes"/>
      <point x="590" y="1146" type="line" smooth="yes"/>
      <point x="590" y="1290"/>
      <point x="502" y="1383"/>
      <point x="434" y="1383" type="qcurve" smooth="yes"/>
      <point x="409" y="1383" type="line" smooth="yes"/>
      <point x="349" y="1383"/>
      <point x="260" y="1296"/>
      <point x="267" y="1210" type="qcurve" smooth="yes"/>
      <point x="269" y="1090" type="line"/>
      <point x="68" y="1090" type="line"/>
      <point x="68" y="1201" type="line" smooth="yes"/>
      <point x="68" y="1334"/>
      <point x="255" y="1522"/>
      <point x="437" y="1522" type="qcurve" smooth="yes"/>
      <point x="468" y="1522" type="line" smooth="yes"/>
      <point x="631" y="1523"/>
      <point x="800" y="1365"/>
      <point x="800" y="1155" type="qcurve" smooth="yes"/>
      <point x="800" y="1075" type="line" smooth="yes"/>
      <point x="800" y="871"/>
      <point x="592" y="698"/>
      <point x="426" y="718" type="qcurve"/>
    </contour>
  </outline>
</glyph>
<glyph name="r" format="2">
  <advance width="630"/>
  <outline>
    <contour>
      <point x="151.0" y="0.0" type="line"/>
      <point x="151.0" y="1040.0" type="line"/>
      <point x="326.0" y="1040.0" type="line"/>
      <point x="326.0" y="0.0" type="line"/>
    </contour>
    <contour>
      <point x="294.0" y="829.0" type="line"/>
      <point x="318.0" y="933.0"/>
      <point x="502.0" y="1064.0"/>
      <point x="590.0" y="1064.0" type="qcurve" smooth="yes"/>
      <point x="616.0" y="1064.0"/>
      <point x="632.0" y="1063.0"/>
      <point x="640.0" y="1062.0" type="qcurve"/>
      <point x="640.0" y="896.0" type="line"/>
      <point x="632.0" y="897.0"/>
      <point x="617.0" y="899.0"/>
      <point x="587.0" y="899.0" type="qcurve" smooth="yes"/>
      <point x="507.0" y="899.0"/>
      <point x="334.0" y="806.0"/>
      <point x="308.0" y="707.0" type="qcurve"/>
    </contour>
  </outline>
</glyph>
<glyph name="s" format="2">
  <advance width="828"/>
  <outline>
    <contour>
      <point x="582.0" y="267" type="line" smooth="yes"/>
      <point x="582.0" y="315.0"/>
      <point x="514" y="420"/>
      <point x="360" y="481" type="qcurve" smooth="yes"/>
      <point x="191" y="548"/>
      <point x="81" y="696"/>
      <point x="81" y="795" type="qcurve" smooth="yes"/>
      <point x="81" y="805" type="line" smooth="yes"/>
      <point x="81.0" y="910.0"/>
      <point x="236" y="1061"/>
      <point x="404" y="1061" type="qcurve" smooth="yes"/>
      <point x="411" y="1061" type="line" smooth="yes"/>
      <point x="570" y="1061"/>
      <point x="719" y="916"/>
      <point x="723" y="793" type="qcurve" smooth="yes"/>
      <point x="723" y="760" type="line"/>
      <point x="543" y="760" type="line"/>
      <point x="543" y="778" type="line" smooth="yes"/>
      <point x="543" y="857"/>
      <point x="483" y="929"/>
      <point x="408" y="929" type="qcurve" smooth="yes"/>
      <point x="396" y="929" type="line" smooth="yes"/>
      <point x="323.0" y="929.0"/>
      <point x="264" y="867"/>
      <point x="264" y="810" type="qcurve" smooth="yes"/>
      <point x="264" y="804" type="line" smooth="yes"/>
      <point x="264" y="745"/>
      <point x="362" y="663"/>
      <point x="474" y="615" type="qcurve" smooth="yes"/>
      <point x="600" y="561"/>
      <point x="760" y="426"/>
      <point x="760" y="301" type="qcurve" smooth="yes"/>
      <point x="760" y="289" type="line" smooth="yes"/>
      <point x="760" y="158"/>
      <point x="595" y="-13"/>
      <point x="411" y="-13" type="qcurve" smooth="yes"/>
      <point x="398" y="-13" type="line" smooth="yes"/>
      <point x="249" y="-13"/>
      <point x="68" y="139"/>
      <point x="68" y="277" type="qcurve" smooth="yes"/>
      <point x="68" y="326" type="line"/>
      <point x="264" y="326" type="line"/>
      <point x="264" y="270" type="line" smooth="yes"/>
      <point x="264" y="188"/>
      <point x="332" y="117"/>
      <point x="418" y="117" type="qcurve" smooth="yes"/>
      <point x="431" y="117" type="line" smooth="yes"/>
      <point x="516" y="117"/>
      <point x="582" y="199"/>
      <point x="582.0" y="244" type="qcurve" smooth="yes"/>
    </contour>
  </outline>
</glyph>
<glyph name="slash" format="2">
  <advance width="610"/>
  <outline>
    <contour>
      <point x="8" y="0" type="line"/>
      <point x="448" y="1500" type="line"/>
      <point x="592" y="1500" type="line"/>
      <point x="152" y="0" type="line"/>
    </contour>
  </outline>
</glyph>
<glyph name="three" format="2">
  <advance width="734"/>
  <outline>
    <contour>
      <point x="336.0" y="737.0" type="qcurve" smooth="yes"/>
      <point x="156.0" y="738.0" type="line"/>
      <point x="156.0" y="894.0" type="line"/>
      <point x="239.0" y="894.0" type="line" smooth="yes"/>
      <point x="333" y="894"/>
      <point x="455.0" y="931.0"/>
      <point x="455.0" y="1066.0" type="qcurve" smooth="yes"/>
      <point x="455.0" y="1202.0" type="line" smooth="yes"/>
      <point x="455.0" y="1285.0"/>
      <point x="393.0" y="1374.0"/>
      <point x="344.0" y="1374.0" type="qcurve"/>
      <point x="326.0" y="1374.0" type="line"/>
      <point x="282.0" y="1374.0"/>
      <point x="208" y="1296"/>
      <point x="210.0" y="1220.0" type="qcurve" smooth="yes"/>
      <point x="212.0" y="1125.0" type="line"/>
      <point x="50.0" y="1125.0" type="line"/>
      <point x="48.0" y="1227.0" type="line" smooth="yes"/>
      <point x="40.0" y="1364.0"/>
      <point x="203.0" y="1517.0"/>
      <point x="330.0" y="1517.0" type="qcurve"/>
      <point x="342.0" y="1517.0" type="line"/>
      <point x="478.0" y="1517.0"/>
      <point x="640.0" y="1364.0"/>
      <point x="640.0" y="1225.0" type="qcurve" smooth="yes"/>
      <point x="640.0" y="1117.0" type="line" smooth="yes"/>
      <point x="640" y="993"/>
      <point x="539.0" y="846.0"/>
      <point x="445.0" y="830.0" type="qcurve"/>
      <point x="566.0" y="814.0"/>
      <point x="662.0" y="662.0"/>
      <point x="662.0" y="540.0" type="qcurve" smooth="yes"/>
      <point x="662.0" y="302.0" type="line" smooth="yes"/>
      <point x="662" y="156"/>
      <point x="511.0" y="-30.0"/>
      <point x="355.0" y="-30.0" type="qcurve"/>
      <point x="351.0" y="-30.0" type="line"/>
      <point x="182.0" y="-30.0"/>
      <point x="38.0" y="118.0"/>
      <point x="39.0" y="240.0" type="qcurve" smooth="yes"/>
      <point x="37.0" y="437.0" type="line"/>
      <point x="206.0" y="437.0" type="line"/>
      <point x="204.0" y="252.0" type="line" smooth="yes"/>
      <point x="203" y="177"/>
      <point x="246.0" y="91.0"/>
      <point x="320.0" y="91.0" type="qcurve"/>
      <point x="337.0" y="91.0" type="line"/>
      <point x="415.0" y="91.0"/>
      <point x="472.0" y="225.0"/>
      <point x="472.0" y="396.0" type="qcurve" smooth="yes"/>
      <point x="472.0" y="519.0" type="line" smooth="yes"/>
      <point x="472.0" y="622.0"/>
      <point x="418" y="732"/>
    </contour>
  </outline>
</glyph>
<glyph name="u" format="2">
  <advance width="908"/>
  <outline>
    <contour>
      <point x="754.0" y="1036.0" type="line"/>
      <point x="754.0" y="-4.0" type="line"/>
      <point x="590.0" y="-4.0" type="line"/>
      <point x="580.0" y="1036.0" type="line"/>
    </contour>
    <contour>
      <point x="718.0" y="310.0" type="line"/>
      <point x="719.0" y="173.0"/>
      <point x="488.0" y="-24.0"/>
      <point x="324.0" y="-24.0" type="qcurve" smooth="yes"/>
      <point x="210.0" y="-24.0"/>
      <point x="126.0" y="91.0"/>
      <point x="126.0" y="207.0" type="qcurve" smooth="yes"/>
      <point x="127.0" y="1036.0" type="line"/>
      <point x="302.0" y="1036.0" type="line"/>
      <point x="302.0" y="210.0" type="line" smooth="yes"/>
      <point x="302.0" y="143.0"/>
      <point x="416.0" y="96.0"/>
      <point x="454.0" y="96.0" type="qcurve" smooth="yes"/>
      <point x="494.0" y="96.0"/>
      <point x="662.0" y="219.0"/>
      <point x="692.0" y="336.0" type="qcurve"/>
    </contour>
  </outline>
</glyph>
<glyph name="v" format="2">
  <advance width="713"/>
  <outline>
    <contour>
      <point x="263" y="1" type="line"/>
      <point x="10" y="1040" type="line"/>
      <point x="188" y="1040" type="line"/>
      <point x="364" y="198" type="line"/>
      <point x="536" y="1040" type="line"/>
      <point x="703" y="1040" type="line"/>
      <point x="448" y="1" type="line"/>
    </contour>
  </outline>
</glyph>
<glyph name="w" format="2">
  <advance width="1082"/>
  <outline>
    <contour>
      <point x="228.0" y="-9.0" type="line"/>
      <point x="10.0" y="1041.0" type="line"/>
      <point x="149.0" y="1041.0" type="line"/>
      <point x="335.0" y="302.0" type="line"/>
      <point x="480.0" y="1051.0" type="line"/>
      <point x="647.0" y="1051.0" type="line"/>
      <point x="819.0" y="302.0" type="line"/>
      <point x="965.0" y="1041.0" type="line"/>
      <point x="1072.0" y="1041.0" type="line"/>
      <point x="880.0" y="-9.0" type="line"/>
      <point x="734.0" y="-9.0" type="line"/>
      <point x="560.0" y="830.0" type="line"/>
      <point x="375.0" y="-9.0" type="line"/>
    </contour>
  </outline>
</glyph>
<glyph name="x" format="2">
  <advance width="654"/>
  <outline>
    <contour>
      <point x="-3.0" y="1.0" type="line"/>
      <point x="452.0" y="1041.0" type="line"/>
      <point x="629.0" y="1041.0" type="line"/>
      <point x="168.0" y="1.0" type="line"/>
    </contour>
    <contour>
      <point x="451.0" y="1.0" type="line"/>
      <point x="-4.0" y="1041.0" type="line"/>
      <point x="195.0" y="1041.0" type="line"/>
      <point x="658.0" y="1.0" type="line"/>
    </contour>
  </outline>
</glyph>
